<svg xmlns="http://www.w3.org/2000/svg" xmlns:xlink="http://www.w3.org/1999/xlink" id="body_1" width="32" height="32">

<g transform="matrix(0.05925926 0 0 0.05925926 0 0)">
    <path transform="matrix(1 0 0 1 0 0)"  d="M511.4814 205.2952C 523.3871 249.7278 523.3871 290.2722 511.4814 334.7048L511.4814 334.7048L487.3148 349.3424L270 270L490.2045 192.0999L511.4814 205.2952z" stroke="none" fill="#FEFE33" fill-rule="nonzero" />
    <path transform="matrix(1 0 0 1 0 0)"  d="M334.7048 28.51854C 379.1374 40.42422 414.2498 60.69639 446.7767 93.2233L446.7767 93.2233L447.4005 118.0959L270 270L313.0648 40.50813L334.7048 28.51854z" stroke="none" fill="#FB9902" fill-rule="nonzero" />
    <path transform="matrix(1 0 0 1 0 0)"  d="M446.7767 93.2233C 479.3036 125.7502 499.5758 160.8626 511.4815 205.2952L511.4815 205.2952L270 270L446.7767 93.2233z" stroke="none" fill="#FABC02" fill-rule="nonzero" />
    <path transform="matrix(1 0 0 1 0 0)"  d="M93.2233 93.2233C 125.7502 60.69639 160.8627 40.42422 205.2952 28.51854L205.2952 28.51854L231.2055 44.50166L270 270L92.73957 120.0571L93.2233 93.2233z" stroke="none" fill="#FE2712" fill-rule="nonzero" />
    <path transform="matrix(1 0 0 1 0 0)"  d="M205.2952 28.51854C 249.7278 16.61287 290.2722 16.61287 334.7048 28.51854L334.7048 28.51854L270 270L205.2952 28.51854z" stroke="none" fill="#FD5308" fill-rule="nonzero" />
    <path transform="matrix(1 0 0 1 0 0)"  d="M28.51854 334.7048C 16.61287 290.2722 16.61287 249.7278 28.51854 205.2953L28.51854 205.2953L56.31128 186.6272L270 270L55.85479 349.4053L28.51854 334.7048z" stroke="none" fill="#8601AF" fill-rule="nonzero" />
    <path transform="matrix(1 0 0 1 0 0)"  d="M28.51854 205.2952C 40.42422 160.8627 60.69639 125.7502 93.2233 93.2233L93.2233 93.2233L270 270L28.51854 205.2952z" stroke="none" fill="#A7194B" fill-rule="nonzero" />
    <path transform="matrix(1 0 0 1 0 0)"  d="M205.2952 511.4814C 160.8627 499.5758 125.7502 479.3036 93.2233 446.7767L93.2233 446.7767L95.30784 418.5887L270 270L231.0453 499.7065L205.2952 511.4814z" stroke="none" fill="#0247FE" fill-rule="nonzero" />
    <path transform="matrix(1 0 0 1 0 0)"  d="M93.2233 446.7767C 60.69639 414.2498 40.42422 379.1374 28.51854 334.7048L28.51854 334.7048L270 270L93.2233 446.7767z" stroke="none" fill="#3D01A4" fill-rule="nonzero" />
    <path transform="matrix(1 0 0 1 0 0)"  d="M446.7767 446.7767C 414.2498 479.3036 379.1374 499.5758 334.7048 511.4814L334.7048 511.4814L310.4533 496.3883L270 270L446.0463 421.157L446.7767 446.7767z" stroke="none" fill="#66B032" fill-rule="nonzero" />
    <path transform="matrix(1 0 0 1 0 0)"  d="M334.7048 511.4814C 290.2722 523.3871 249.7278 523.3871 205.2953 511.4814L205.2953 511.4814L270 270L334.7048 511.4814z" stroke="none" fill="#0391CE" fill-rule="nonzero" />
    <path transform="matrix(1 0 0 1 0 0)"  d="M511.4814 334.7048C 499.5758 379.1374 479.3036 414.2498 446.7767 446.7767L446.7767 446.7767L270 270L511.4814 334.7048z" stroke="none" fill="#D0EA2B" fill-rule="nonzero" />
</g>
</svg>