<svg version="1.1" xmlns="http://www.w3.org/2000/svg" xmlns:xlink="http://www.w3.org/1999/xlink" x="0px" y="0px" viewBox="0 0 1000 1000" enable-background="new 0 0 1000 1000" xml:space="preserve">
<g><g transform="translate(0.000000,511.000000) scale(0.100000,-0.100000)"><path d="M8243.7,4963.1c-311.3-105.5-356.2-142.5-1466.8-1247.9L5695.2,2633.5l-131.9,60.7c-200.5,92.3-453.8,84.4-675.4-26.4c-213.7-105.5-714.9-604.2-809.9-809.9c-129.3-274.4-97.6-617.3,81.8-878.5l81.8-116.1L2458.1-922.8C1363.3-2020.3,651-2753.7,608.8-2827.6c-129.3-226.9-179.4-414.2-179.4-672.7V-3743l-105.5-100.3C73.2-4086,28.4-4397.2,213-4618.9c97.6-113.4,211.1-166.2,366.7-166.2c174.1,0,284.9,52.8,456.4,205.8l139.8,126.6l203.1-5.3c232.2-5.3,414.2,39.6,651.6,163.6c131.9,68.6,443.2,366.7,1941.7,1857.3L5753.3-658.9l153-92.3c282.3-168.8,564.6-187.3,852.1-55.4c208.4,95,717.6,601.5,809.9,807.3c97.6,213.7,110.8,419.5,34.3,630.5L7542,802.6l1060.5,1068.5c992,1002.5,1063.2,1081.7,1158.2,1271.6c66,134.5,108.1,266.5,126.6,401c84.4,593.6-258.5,1174-823.1,1390.3C8853.1,5015.8,8444.2,5029,8243.7,4963.1z M8876.9,4322c255.9-116.1,379.9-306,382.5-591c0-139.8-13.2-213.7-58-303.4c-42.2-81.8-361.4-419.5-1042.1-1102.8l-984-981.4l-219,250.6c-118.7,137.2-329.8,348.2-467,467L6236,2280l1023.6,1018.3C8030,4066.1,8307,4322,8375.6,4343.1C8531.3,4390.6,8747.6,4382.7,8876.9,4322z M5505.3,2008.3c556.7-340.3,1084.3-873.2,1432.5-1448.4c76.5-129.3,95-179.4,79.1-237.4c-7.9-39.6-124-182-261.2-319.2c-208.4-213.7-255.9-248-350.9-261.2c-126.6-15.8-137.2-10.5-364.1,311.3c-200.5,282.3-778.3,862.7-1068.5,1076.4c-340.3,248-343,250.6-343,361.4c0,87.1,23.7,121.4,245.3,345.6c232.2,240.1,303.4,292.8,387.8,295.5C5283.6,2132.3,5394.5,2076.9,5505.3,2008.3z M5083.1,190.6c158.3-155.7,284.9-295.5,284.9-311.3c0-15.9-430-456.4-955-981.4c-754.5-749.3-978.8-960.3-1063.2-986.7c-153-52.8-791.5-50.1-897,2.7c-176.8,89.7-192.6,71.3,1100.1,1364C4209.9-65.4,4758.6,472.8,4774.5,472.8C4787.7,472.8,4927.5,346.2,5083.1,190.6z M1869.8-2460.8c23.7-31.7,42.2-76.5,42.2-97.6c0-21.1-142.5-182-313.9-356.2c-174.1-176.8-329.8-353.5-345.6-398.4c-18.5-47.5-23.7-137.2-13.2-229.5c15.8-142.4,13.2-150.4-52.8-195.2c-63.3-42.2-79.1-42.2-139.8-7.9c-131.9,73.9-163.6,343-68.6,575.1c21.1,50.1,189.9,245.4,372,430.1C1711.5-2376.4,1785.4-2336.8,1869.8-2460.8z"/></g></g>
</svg>