<?xml version="1.0" standalone="no"?>
<!DOCTYPE svg PUBLIC "-//W3C//DTD SVG 1.0//EN" "http://www.w3.org/TR/2001/REC-SVG-20010904/DTD/svg10.dtd">
<svg xmlns="http://www.w3.org/2000/svg" xmlns:xlink="http://www.w3.org/1999/xlink" id="body_1" width="25" height="25">

<g transform="matrix(0.7575758 0 0 0.7575758 0 0)">
	<g transform="matrix(0.06653225 0 0 0.06653225 0 0)">
	</g>
    <path transform="matrix(0.06653225 0 0 0.06653225 0 0)"  d="M488 0L8 0C 3.582031 0 0 3.582031 0 8L0 8L0 128C 0 132.418 3.582031 136 8 136L8 136L25.44141 136L96.16016 489.6016C 96.92188 493.3242 100.1992 496 104 496L104 496L392 496C 395.8008 496 399.0781 493.3242 399.8398 489.6016L399.8398 489.6016L470.5586 136L488 136C 492.418 136 496 132.418 496 128L496 128L496 8C 496 3.582031 492.418 0 488 0zM385.4414 480L110.5586 480L41.76172 136L454.2383 136zM480 120L16 120L16 16L480 16z" stroke="none" fill="#000000" fill-rule="nonzero" />
	<g transform="matrix(0.06653225 0 0 0.06653225 0 0)">
	</g>
    <path transform="matrix(0.06653225 0 0 0.06653225 0 0)"  d="M138.1758 360.5664C 138.1758 362.6914 139.0195 364.7227 140.5195 366.2227L140.5195 366.2227L185.7773 411.4805C 188.8984 414.6016 193.9648 414.6016 197.0898 411.4805L197.0898 411.4805L248 360.5664L298.9102 411.4805C 302.0352 414.6016 307.1016 414.6016 310.2227 411.4805L310.2227 411.4805L355.4805 366.2227C 358.6016 363.1016 358.6016 358.0352 355.4805 354.9102L355.4805 354.9102L304.5664 304L355.4805 253.0898C 358.6016 249.9648 358.6016 244.8984 355.4805 241.7773L355.4805 241.7773L310.2227 196.5195C 307.1016 193.3984 302.0352 193.3984 298.9102 196.5195L298.9102 196.5195L248 247.4336L197.0898 196.5195C 193.9648 193.3984 188.8984 193.3984 185.7773 196.5195L185.7773 196.5195L140.5195 241.7773C 137.3984 244.8984 137.3984 249.9648 140.5195 253.0898L140.5195 253.0898L191.4336 304L140.5195 354.9102C 139.0195 356.4102 138.1758 358.4453 138.1758 360.5664zM208.3984 309.6563C 211.5234 306.5313 211.5234 301.4688 208.3984 298.3438L208.3984 298.3438L157.4883 247.4336L191.4336 213.4961L242.3438 264.3984C 245.4688 267.5234 250.5313 267.5234 253.6563 264.3984L253.6563 264.3984L304.5664 213.4961L338.5117 247.4336L287.6016 298.3438C 284.4766 301.4688 284.4766 306.5313 287.6016 309.6563L287.6016 309.6563L338.5117 360.5664L304.5664 394.5039L253.6563 343.6016C 250.5313 340.4766 245.4688 340.4766 242.3438 343.6016L242.3438 343.6016L191.4336 394.5039L157.4883 360.5664z" stroke="none" fill="#000000" fill-rule="nonzero" />
</g>
</svg>